M48
INCH
T16C0.035
T15C0.043
T14C0.036
T13C0.091
T12C0.039
T11C0.031
%
T11
G05
X033800Y011456
T16
X038100Y005536
X036100Y005536
T14
X034038Y003022
X034038Y001762
X035022Y001762
X035022Y003022
T12
X033600Y010236
X034600Y010236
X035600Y010236
X035500Y012236
X036500Y012236
X033600Y007236
X034600Y007236
X035600Y007236
X031600Y005536
X034600Y005536
X036600Y007236
X036600Y010236
X038500Y010736
X038500Y008836
X038500Y007836
X038500Y014736
X035500Y014236
X035500Y013236
X036500Y014236
X036500Y013236
X038500Y013736
X038500Y017736
X037159Y016536
X034600Y016536
X037159Y018336
X034600Y018336
T15
X026994Y001961
X026994Y000961
T13
X032160Y002136
X036900Y002136
M30
