G04 start of page 2 for group 11 layer_idx 9 *
G04 Title: (unknown), bottom_mask *
G04 Creator: pcb-rnd 3.1.4-dev *
G04 CreationDate: 2024-01-01 05:55:27 UTC *
G04 For: STEM4ukraine *
G04 Format: Gerber/RS-274X *
G04 PCB-Dimensions: 393701 402362 *
G04 PCB-Coordinate-Origin: lower left *
%MOIN*%
%FSLAX25Y25*%
%LNBOTTOM_MASK_NONE_11*%
%ADD62C,0.0960*%
%ADD61C,0.0710*%
%ADD60C,0.0887*%
%ADD59C,0.1595*%
%ADD58C,0.0001*%
%ADD57C,0.0860*%
G54D57*X336000Y102362D03*
X346000D03*
X356000D03*
X355000Y122362D03*
X365000D03*
G54D58*G36*
X331700Y68062D02*Y76662D01*
X340300D01*
Y68062D01*
X331700D01*
G37*
G54D57*X346000Y72362D03*
X356000D03*
X316000Y55362D03*
G54D58*G36*
X350300Y51062D02*X341700D01*
Y59662D01*
X350300D01*
Y51062D01*
G37*
G54D59*X321598Y21362D03*
G54D60*X340378Y30220D03*
Y17622D03*
X350220D03*
G54D58*G36*
X273495Y23164D02*Y16064D01*
X266395D01*
Y23164D01*
X273495D01*
G37*
G54D61*X269945Y9614D03*
G54D60*X350220Y30220D03*
G54D57*X191205Y21425D02*Y16268D01*
G54D58*G36*
X195505Y50568D02*Y36768D01*
X186905D01*
Y50568D01*
X195505D01*
G37*
G54D57*X366000Y72362D03*
X381000Y55362D03*
X361000D03*
G54D59*X369000Y21362D03*
G54D57*X366000Y102362D03*
G54D58*G36*
X380700Y103062D02*Y111662D01*
X389300D01*
Y103062D01*
X380700D01*
G37*
G36*
Y92662D02*X389300D01*
Y84062D01*
X380700D01*
Y92662D01*
G37*
G54D57*X385000Y78362D03*
G54D58*G36*
X380700Y143062D02*Y151662D01*
X389300D01*
Y143062D01*
X380700D01*
G37*
G36*
X350700Y146662D02*X359300D01*
Y138062D01*
X350700D01*
Y146662D01*
G37*
G54D57*X355000Y132362D03*
X365000Y142362D03*
Y132362D03*
X385000Y137362D03*
Y177362D03*
G54D62*X371591Y165362D03*
X346000D03*
X371591Y183362D03*
X346000D03*
M02*
