G04 start of page 2 for group 9 layer_idx 4 *
G04 Title: (unknown), global_outline *
G04 Creator: pcb-rnd 3.1.4-dev *
G04 CreationDate: 2024-01-01 05:55:27 UTC *
G04 For: STEM4ukraine *
G04 Format: Gerber/RS-274X *
G04 PCB-Dimensions: 393701 402362 *
G04 PCB-Coordinate-Origin: lower left *
%MOIN*%
%FSLAX25Y25*%
%LNGLOBAL_BOUNDARY_UROUTE_9*%
%ADD63C,0.0100*%
G54D63*X0Y252756D02*X4331Y257480D01*
X9843Y261811D01*
X16535Y265354D01*
X28740Y269685D01*
X37402D01*
X40551Y268110D01*
X42913Y265748D01*
X38976Y302362D02*X38189Y303937D01*
Y328740D01*
X39370Y334252D01*
X42126Y340551D01*
X42913Y265748D02*X45276Y262205D01*
X48031Y287402D02*X42520Y296457D01*
X38976Y302362D01*
X42126Y340551D02*X43307Y342913D01*
X44488Y344094D01*
X48425Y346457D01*
X50787Y347638D01*
X57874Y348819D01*
X61811Y349606D01*
X67323Y353937D01*
X68110Y355906D01*
X70866Y359843D01*
X73228Y362205D01*
X77953Y365748D01*
X82283Y368110D01*
X88189Y371260D01*
X95669Y373622D01*
X109843Y377165D01*
X116142D01*
X123622Y374803D01*
X127559Y371654D01*
X142126D01*
X148819Y374803D01*
X162992Y379528D01*
X168898D01*
X173228Y381890D01*
X185039Y385039D01*
X190945Y387008D01*
X201575Y389370D01*
X224016D01*
X231102Y388189D01*
X238583Y385827D01*
X241732Y385433D01*
X251575Y382677D01*
X257087Y384646D01*
X268504D01*
X272835Y388189D01*
X277953Y390551D01*
X285039Y392913D01*
X289370Y393701D01*
X300394D01*
X304331Y391732D01*
X307874Y391339D01*
X314173Y385039D01*
X319685Y381890D01*
X322835Y378740D01*
X321654Y277165D02*X318110Y250000D01*
X315354Y243307D01*
X314173Y236614D01*
Y224803D01*
X314961Y214961D01*
Y194685D01*
X322835Y378740D02*X324803Y377953D01*
X328346Y374016D01*
X334646Y366142D01*
X336614Y364961D01*
X339370Y359055D01*
X346063Y349606D01*
X354724Y329134D01*
X357087Y320472D01*
X361417Y310630D01*
Y291732D01*
X342520Y294882D02*X335039Y299213D01*
X330709Y303543D01*
X324803D01*
Y300394D01*
X361417Y291732D02*X359449Y289764D01*
X353543D01*
X342520Y294882D01*
X324803Y300394D02*X322441Y296457D01*
Y289370D01*
X321654Y285433D01*
Y277165D01*
X393701Y0D02*X0D01*
Y252756D01*
X393701Y192717D02*Y0D01*
X316929Y192717D02*X393701D01*
X314961Y194685D02*X316929Y192717D01*
X45276Y262205D02*X46457Y257480D01*
X48425Y254331D01*
X59843Y264961D02*X62598Y267717D01*
Y272441D01*
X59055Y279528D01*
X56693Y281890D01*
X48425Y254331D02*X51181D01*
X58661Y262598D01*
X59843Y264961D01*
X56693Y281890D02*X53937Y282677D01*
X50394Y285039D01*
X48031Y287402D01*
G04 start of page 3 for group 14 layer_idx 11 *
G04 Title: (unknown), pmech *
G04 Creator: pcb-rnd 3.1.4-dev *
G04 CreationDate: 2024-01-01 05:55:27 UTC *
G04 For: STEM4ukraine *
G04 Format: Gerber/RS-274X *
G04 PCB-Dimensions: 393701 402362 *
G04 PCB-Coordinate-Origin: lower left *
%MOIN*%
%FSLAX25Y25*%
%LNGLOBAL_MECH_PROUTE_14*%
%ADD65C,0.0004*%
G04 start of page 4 for group 15 layer_idx 12 *
G04 Title: (unknown), umech *
G04 Creator: pcb-rnd 3.1.4-dev *
G04 CreationDate: 2024-01-01 05:55:27 UTC *
G04 For: STEM4ukraine *
G04 Format: Gerber/RS-274X *
G04 PCB-Dimensions: 393701 402362 *
G04 PCB-Coordinate-Origin: lower left *
%MOIN*%
%FSLAX25Y25*%
%LNGLOBAL_MECH_UROUTE_15*%
%ADD66C,0.0004*%
G04 start of page 5 for group 14 layer_idx 11 *
G04 Title: (unknown), pmech *
G04 Creator: pcb-rnd 3.1.4-dev *
G04 CreationDate: 2024-01-01 05:55:27 UTC *
G04 For: STEM4ukraine *
G04 Format: Gerber/RS-274X *
G04 PCB-Dimensions: 393701 402362 *
G04 PCB-Coordinate-Origin: lower left *
%MOIN*%
%FSLAX25Y25*%
%LNGLOBAL_MECH_PROUTE_14*%
%ADD64C,0.0394*%
G54D64*X191205Y21425D02*Y16268D01*
Y46268D02*Y41110D01*
M02*
